<?xml version="1.0" encoding="utf-8"?>
<svg xmlns="http://www.w3.org/2000/svg" viewBox="0 0 1792 1792">
  <path d="M896.00 1408.00 Q826.00 1408.00 751.00 1400.00 Q553.00 1575.00 291.00 1642.00 Q242.00 1656.00 177.00 1664.00 Q160.00 1666.00 146.50 1655.00 Q133.00 1644.00 129.00 1626.00 L129.00 1625.00 Q126.00 1621.00 128.50 1613.00 Q131.00 1605.00 130.50 1603.00 Q130.00 1601.00 135.00 1593.50 Q140.00 1586.00 141.00 1584.50 Q142.00 1583.00 148.00 1576.00 Q154.00 1569.00 156.00 1567.00 Q163.00 1559.00 187.00 1532.50 Q211.00 1506.00 221.50 1494.50 Q232.00 1483.00 252.50 1455.00 Q273.00 1427.00 285.00 1404.00 Q297.00 1381.00 312.00 1345.00 Q327.00 1309.00 338.00 1269.00 Q181.00 1180.00 90.50 1049.00 Q0.00 918.00 0.00 768.00 Q0.00 638.00 71.00 519.50 Q142.00 401.00 262.00 315.00 Q382.00 229.00 548.00 178.50 Q714.00 128.00 896.00 128.00 Q1140.00 128.00 1346.00 213.50 Q1552.00 299.00 1672.00 446.50 Q1792.00 594.00 1792.00 768.00 Q1792.00 942.00 1672.00 1089.50 Q1552.00 1237.00 1346.00 1322.50 Q1140.00 1408.00 896.00 1408.00 Z" fill="currentColor"/>
</svg>