<?xml version="1.0" encoding="utf-8"?>
<svg xmlns="http://www.w3.org/2000/svg" viewBox="0 0 2176 1792">
  <path d="M640.00 1632.00 L1024.00 1440.00 L1024.00 1126.00 L640.00 1290.00 Z M576.00 1178.00 L980.00 1005.00 L576.00 832.00 L172.00 1005.00 Z M1664.00 1632.00 L2048.00 1440.00 L2048.00 1126.00 L1664.00 1290.00 Z M1600.00 1178.00 L2004.00 1005.00 L1600.00 832.00 L1196.00 1005.00 Z M1152.00 885.00 L1536.00 720.00 L1536.00 454.00 L1152.00 618.00 Z M1088.00 506.00 L1529.00 317.00 L1088.00 128.00 L647.00 317.00 Z M2176.00 1024.00 L2176.00 1440.00 Q2176.00 1476.00 2157.00 1507.00 Q2138.00 1538.00 2105.00 1554.00 L1657.00 1778.00 Q1632.00 1792.00 1600.00 1792.00 Q1568.00 1792.00 1543.00 1778.00 L1095.00 1554.00 Q1091.00 1552.00 1088.00 1550.00 Q1086.00 1552.00 1081.00 1554.00 L633.00 1778.00 Q608.00 1792.00 576.00 1792.00 Q544.00 1792.00 519.00 1778.00 L71.00 1554.00 Q38.00 1538.00 19.00 1507.00 Q0.00 1476.00 0.00 1440.00 L0.00 1024.00 Q0.00 986.00 21.50 954.00 Q43.00 922.00 78.00 906.00 L512.00 720.00 L512.00 320.00 Q512.00 282.00 533.50 250.00 Q555.00 218.00 590.00 202.00 L1038.00 10.00 Q1061.00 0.00 1088.00 0.00 Q1115.00 0.00 1138.00 10.00 L1586.00 202.00 Q1621.00 218.00 1642.50 250.00 Q1664.00 282.00 1664.00 320.00 L1664.00 720.00 L2098.00 906.00 Q2134.00 922.00 2155.00 954.00 Q2176.00 986.00 2176.00 1024.00 Z" fill="currentColor"/>
</svg>