<?xml version="1.0" encoding="utf-8"?>
<svg xmlns="http://www.w3.org/2000/svg" viewBox="0 0 1792 1792">
  <path d="M1018.00 666.50 Q1000.00 703.50 960.00 703.50 L768.00 703.50 L768.00 1567.50 Q768.00 1581.50 759.00 1590.50 Q750.00 1599.50 736.00 1599.50 L32.00 1599.50 Q11.00 1599.50 3.00 1581.50 Q-5.00 1561.50 7.00 1546.50 L167.00 1354.50 Q176.00 1343.50 192.00 1343.50 L512.00 1343.50 L512.00 703.50 L320.00 703.50 Q280.00 703.50 262.00 666.50 Q245.00 629.50 271.00 598.50 L591.00 214.50 Q609.00 192.50 640.00 192.50 Q671.00 192.50 689.00 214.50 L1009.00 598.50 Q1036.00 630.50 1018.00 666.50 Z" fill="currentColor"/>
</svg>