<?xml version="1.0" encoding="utf-8"?>
<svg xmlns="http://www.w3.org/2000/svg" viewBox="0 0 1792 1792">
  <path d="M736.00 576.00 Q736.00 589.00 726.50 598.50 Q717.00 608.00 704.00 608.00 Q691.00 608.00 681.50 598.50 Q672.00 589.00 672.00 576.00 Q672.00 530.00 618.00 505.00 Q564.00 480.00 512.00 480.00 Q499.00 480.00 489.50 470.50 Q480.00 461.00 480.00 448.00 Q480.00 435.00 489.50 425.50 Q499.00 416.00 512.00 416.00 Q562.00 416.00 611.50 432.00 Q661.00 448.00 698.50 486.00 Q736.00 524.00 736.00 576.00 Z M896.00 576.00 Q896.00 504.00 861.50 442.00 Q827.00 380.00 771.50 340.50 Q716.00 301.00 648.50 278.50 Q581.00 256.00 512.00 256.00 Q443.00 256.00 375.50 278.50 Q308.00 301.00 252.50 340.50 Q197.00 380.00 162.50 442.00 Q128.00 504.00 128.00 576.00 Q128.00 677.00 196.00 756.00 Q206.00 767.00 226.50 789.00 Q247.00 811.00 257.00 822.00 Q385.00 975.00 398.00 1120.00 L626.00 1120.00 Q639.00 975.00 767.00 822.00 Q777.00 811.00 797.50 789.00 Q818.00 767.00 828.00 756.00 Q896.00 677.00 896.00 576.00 Z M1024.00 576.00 Q1024.00 731.00 921.00 844.00 Q876.00 893.00 846.50 931.00 Q817.00 969.00 787.00 1026.50 Q757.00 1084.00 753.00 1134.00 Q800.00 1162.00 800.00 1216.00 Q800.00 1253.00 775.00 1280.00 Q800.00 1307.00 800.00 1344.00 Q800.00 1396.00 755.00 1425.00 Q768.00 1448.00 768.00 1472.00 Q768.00 1518.00 736.50 1543.00 Q705.00 1568.00 659.00 1568.00 Q639.00 1612.00 599.00 1638.00 Q559.00 1664.00 512.00 1664.00 Q465.00 1664.00 425.00 1638.00 Q385.00 1612.00 365.00 1568.00 Q319.00 1568.00 287.50 1543.00 Q256.00 1518.00 256.00 1472.00 Q256.00 1448.00 269.00 1425.00 Q224.00 1396.00 224.00 1344.00 Q224.00 1307.00 249.00 1280.00 Q224.00 1253.00 224.00 1216.00 Q224.00 1162.00 271.00 1134.00 Q267.00 1084.00 237.00 1026.50 Q207.00 969.00 177.50 931.00 Q148.00 893.00 103.00 844.00 Q0.00 731.00 0.00 576.00 Q0.00 477.00 44.50 391.50 Q89.00 306.00 161.50 249.50 Q234.00 193.00 325.50 160.50 Q417.00 128.00 512.00 128.00 Q607.00 128.00 698.50 160.50 Q790.00 193.00 862.50 249.50 Q935.00 306.00 979.50 391.50 Q1024.00 477.00 1024.00 576.00 Z" fill="currentColor"/>
</svg>