<?xml version="1.0" encoding="utf-8"?>
<svg xmlns="http://www.w3.org/2000/svg" viewBox="0 0 1792 1792">
  <path d="M320.00 832.00 L832.00 832.00 L832.00 640.00 Q832.00 534.00 757.00 459.00 Q682.00 384.00 576.00 384.00 Q470.00 384.00 395.00 459.00 Q320.00 534.00 320.00 640.00 Z M1152.00 928.00 L1152.00 1504.00 Q1152.00 1544.00 1124.00 1572.00 Q1096.00 1600.00 1056.00 1600.00 L96.00 1600.00 Q56.00 1600.00 28.00 1572.00 Q0.00 1544.00 0.00 1504.00 L0.00 928.00 Q0.00 888.00 28.00 860.00 Q56.00 832.00 96.00 832.00 L128.00 832.00 L128.00 640.00 Q128.00 456.00 260.00 324.00 Q392.00 192.00 576.00 192.00 Q760.00 192.00 892.00 324.00 Q1024.00 456.00 1024.00 640.00 L1024.00 832.00 L1056.00 832.00 Q1096.00 832.00 1124.00 860.00 Q1152.00 888.00 1152.00 928.00 Z" fill="currentColor"/>
</svg>