<?xml version="1.0" encoding="utf-8"?>
<svg xmlns="http://www.w3.org/2000/svg" viewBox="0 0 1792 1792">
  <path d="M1792.00 352.00 L1792.00 1440.00 Q1792.00 1482.00 1753.00 1499.00 Q1740.00 1504.00 1728.00 1504.00 Q1701.00 1504.00 1683.00 1485.00 L1280.00 1082.00 L1280.00 1248.00 Q1280.00 1367.00 1195.50 1451.50 Q1111.00 1536.00 992.00 1536.00 L288.00 1536.00 Q169.00 1536.00 84.50 1451.50 Q0.00 1367.00 0.00 1248.00 L0.00 544.00 Q0.00 425.00 84.50 340.50 Q169.00 256.00 288.00 256.00 L992.00 256.00 Q1111.00 256.00 1195.50 340.50 Q1280.00 425.00 1280.00 544.00 L1280.00 709.00 L1683.00 307.00 Q1701.00 288.00 1728.00 288.00 Q1740.00 288.00 1753.00 293.00 Q1792.00 310.00 1792.00 352.00 Z" fill="currentColor"/>
</svg>